<svg xmlns="http://www.w3.org/2000/svg" version="1.1" width="1440" height="560" preserveAspectRatio="none" viewBox="0 0 1440 560"><g mask="url(#SvgjsMask1000)" fill="none"><path d="M500.02 578.09C650.56 575.59 765.52 394.64 1071.25 387.26 1376.97 379.88 1487.03 146.04 1642.47 140.86" stroke="rgba(51,121,194,0.35)" stroke-width="2"></path><path d="M749.34 651.64C912.46 617.16 985.2 194.03 1233.2 192.68 1481.2 191.33 1582.1 426.95 1717.06 433.48" stroke="rgba(51,121,194,0.35)" stroke-width="2"></path><path d="M607.26 627.39C739.93 626.85 853.59 525.34 1127.18 521 1400.77 516.66 1504.54 291.19 1647.1 285.8" stroke="rgba(51,121,194,0.35)" stroke-width="2"></path><path d="M386.1 670.7C543.58 665.45 655.81 428.1 964.78 421.02 1273.76 413.94 1391.62 238.44 1543.47 236.22" stroke="rgba(51,121,194,0.35)" stroke-width="2"></path><path d="M442.18 664.04C591.98 604.68 528.94 148.57 826.05 146.27 1123.16 143.97 1393.87 368 1593.79 370.27" stroke="rgba(51,121,194,0.35)" stroke-width="2"></path></g><defs><mask id="SvgjsMask1000"><rect width="1440" height="560" fill="#ffffff"></rect></mask></defs></svg>
