<svg xmlns="http://www.w3.org/2000/svg" version="1.1" width="1440" height="560" preserveAspectRatio="none" viewBox="0 0 1440 560"><g mask="url(#SvgjsMask1002)" fill="none"><path d="M -73.573251213189,468 C 22.43,414.4 214.43,228.4 406.426748786811,200 C 598.43,171.6 694.43,327.2 886.426748786811,326 C 1078.43,324.8 1174.43,200.8 1366.426748786811,194 C 1558.43,187.2 1831.71,283 1846.426748786811,292 C 1861.14,301 1521.29,249.6 1440,239" stroke="rgba(233, 233, 233, 0.24)" stroke-width="2"></path><path d="M -874.9649013172137,334 C -778.96,312 -586.96,191.8 -394.96490131721373,224 C -202.96,256.2 -106.96,528.6 85.03509868278627,495 C 277.04,461.4 373.04,65.4 565.0350986827863,56 C 757.04,46.6 870.04,447.6 1045.0350986827862,448 C 1220.03,448.4 1361.01,136 1440,58" stroke="rgba(233, 233, 233, 0.24)" stroke-width="2"></path><path d="M -117.5375204532952,195 C -21.54,223.2 170.46,342 362.4624795467048,336 C 554.46,330 650.46,169.6 842.4624795467048,165 C 1034.46,160.4 1130.46,328.6 1322.4624795467048,313 C 1514.46,297.4 1778.95,87.4 1802.4624795467048,87 C 1825.97,86.6 1512.49,266.2 1440,311" stroke="rgba(233, 233, 233, 0.24)" stroke-width="2"></path><path d="M -647.9773473017816,170 C -551.98,194.2 -359.98,279.8 -167.9773473017816,291 C 24.02,302.2 120.02,209.6 312.0226526982184,226 C 504.02,242.4 600.02,386.6 792.0226526982184,373 C 984.02,359.4 1142.43,148.2 1272.0226526982183,158 C 1401.62,167.8 1406.4,369.2 1440,422" stroke="rgba(233, 233, 233, 0.24)" stroke-width="2"></path></g><defs><mask id="SvgjsMask1002"><rect width="1440" height="560" fill="#ffffff"></rect></mask></defs></svg>
